<svg version="1.1" xmlns="http://www.w3.org/2000/svg" xmlns:xlink="http://www.w3.org/1999/xlink" x="0px" y="0px" width="34.602px" height="32.279px" viewBox="0 0 34.602 32.279" enable-background="new 0 0 34.602 32.279" xml:space="preserve" preserveAspectRatio="xMaxYMin meet">
							<path d="M30.104,11.776c1.517,2.396,2.704,2.355,4.497,2.355c-1.484-1.138-2.465-2.593-2.933-3.337l-2.771-4.434	c-0.271-1.369-0.979-2.649-2.039-3.604c0.355-0.135,0.653-0.274,0.832-0.412c-1.811,0-3.604-0.919-4.589-0.919	c-0.636,0-1.042,0.379-1.042,0.882c0.041,0.559,0.614,1.126,1.677,1.126c0.241,0,0.549-0.031,0.887-0.09	c0.575,0.804,1.039,1.526,1.039,2.563c0,1.938-2.321,3.454-4.664,3.454c-0.132,0-0.258-0.005-0.391-0.018	c-0.213-0.479-0.918-1.289-0.918-2.208c0-1.542,1.006-2.801,1.006-4.33c0-0.946-0.463-1.533-0.641-1.778	c0.288-0.27,0.604-0.598,0.676-0.819C20.564,0.28,20.367,0.29,20.078,0.29c-1.124,0-2.039-0.292-2.933-0.292	c-0.509,0-0.646,0.158-0.646,0.307c0,0.057,0.009,0.111,0.022,0.141c-0.189-0.075-0.368-0.123-0.58-0.162	c-0.263-0.05-0.547-0.075-0.85-0.075c-1.084,0-1.47,0.455-1.47,0.844c0,0.33,0.26,0.935,0.555,1.394	c0.423-0.213,0.931-0.357,1.162-0.357c0.575,0,1.088,0.549,1.358,1.198c-0.388,0.046-0.462,0.063-0.854,0.063	c-1.056,0-1.772-0.379-1.923-0.379c-0.014,0-0.042,0.009-0.042,0.03c0,0.149,0.301,0.54,0.891,0.755	c0.776,0.285,1.941,0.403,2.137,0.438c0,0.032-0.197,0.399-0.417,0.473c-0.048,0.015-0.083,0.018-0.138,0.006	c-0.813-0.161-1.04-0.229-2.068-0.621c-0.032-0.012-0.051,0.008-0.051,0.041c0,0.407,1.056,1.308,2,1.65	c-0.79,1.008-1.774,2.039-2.239,3.609c-0.133,0.012-0.26,0.017-0.392,0.017c-2.344,0-4.663-1.514-4.663-3.454	c0-1.034,0.464-1.758,1.04-2.561c0.338,0.056,0.646,0.088,0.887,0.088c1.063,0,1.637-0.568,1.679-1.126	c0-0.501-0.407-0.881-1.044-0.881c-0.986,0-2.777,0.92-4.589,0.92c0.181,0.133,0.479,0.274,0.833,0.411	c-1.06,0.951-1.769,2.231-2.039,3.601l-2.771,4.433C2.467,11.543,1.483,12.998,0,14.135c1.793,0,2.98,0.04,4.498-2.355l1.42-2.273	c0.104,0.295,0.234,0.582,0.388,0.864L3.48,14.891c-0.47,0.749-1.443,2.192-2.934,3.336c1.792,0,2.979,0.043,4.497-2.354	l2.434-3.895c0.183,0.191,0.374,0.384,0.576,0.563l-3.433,5.495c-0.473,0.75-1.439,2.188-2.934,3.334	c1.793,0,2.98,0.043,4.498-2.355l3.346-5.354c0.22,0.139,0.445,0.273,0.679,0.401l-4.084,6.533	c-0.472,0.752-1.439,2.188-2.933,3.332c1.793,0,2.98,0.043,4.498-2.354l4.204-6.73c0.249,0.098,0.502,0.188,0.758,0.271	l-4.751,7.603c-0.464,0.742-1.455,2.203-2.932,3.334c1.792,0,2.98,0.041,4.496-2.354l5.064-8.106	c0.051,0.009,0.103,0.02,0.151,0.027c0.139,0.438,0.233,0.846,0.233,1.254c0,2.545-1.67,4.795-3.677,6.531	c0.128,0.057,0.352,0.076,0.559,0.076c0.414,0,0.682-0.021,0.869-0.057c-0.465,1.057-1.462,2.42-1.967,3.125	c-0.657-0.117-1.611-0.211-2.237-0.211c-0.653,0-0.729,0.385-0.729,0.727c0,0.596,0.277,1.066,0.603,1.332	c0.121-0.307,0.365-0.711,1.575-0.711c0.022,0,0.064,0.004,0.122,0.008c-0.354,0.395-1.46,1.287-1.46,2.008	c0,0.479,0.522,1.191,1.213,1.191c-0.042-0.152-0.036-0.297-0.036-0.4c0-0.584,0.518-1.27,0.953-1.744	c-0.013,0.143-0.006,0.127-0.006,0.293c0,1.381,0.125,2.016,1.001,2.016c0.43,0,0.728-0.236,0.827-0.307	c-0.568-0.523-0.599-0.936-0.599-1.709c0.001-0.201,0.002-0.398,0.005-0.67c0.002-0.178,0-0.412-0.028-0.58	c0.313-0.043,0.439-0.043,0.682-0.043c0,0,1.245-0.1,1.543,0.547c0.338-0.311,0.828-0.746,0.828-1.229c0-0.316-0.15-0.68-0.792-0.68	c-0.243,0-1.005,0.148-1.645,0.148c0.171-0.381,0.937-1.498,1.598-2.311c0.101,0.314,0.256,0.654,0.604,0.934	c0.047-0.521,0.354-2.17,1.168-3.135c0.094,0.65,0.224,1.318,0.224,2.729c0,3.43-0.824,5.959-2.574,6.443	c0.229,0.396,0.708,0.754,1.208,0.754c0.641,0,0.989-0.727,1.344-1.408c0.187,0.504,0.696,1.74,1.21,1.74	c0.512,0,1.023-1.236,1.209-1.74c0.354,0.684,0.703,1.408,1.344,1.408c0.5,0,0.98-0.357,1.209-0.754	c-1.75-0.482-2.574-3.018-2.574-6.443c0-1.408,0.127-2.078,0.222-2.729c0.814,0.965,1.122,2.611,1.169,3.135	c0.348-0.277,0.505-0.617,0.604-0.934c0.662,0.813,1.426,1.93,1.599,2.311c-0.641,0-1.402-0.148-1.646-0.148	c-0.641,0-0.791,0.361-0.791,0.68c0,0.48,0.49,0.918,0.828,1.229c0.299-0.645,1.544-0.547,1.544-0.547c0.241,0,0.367,0,0.683,0.043	c-0.029,0.168-0.031,0.402-0.03,0.58c0.003,0.271,0.004,0.469,0.004,0.67c0,0.773-0.028,1.186-0.598,1.709	c0.103,0.07,0.397,0.307,0.827,0.307c0.877,0,1.002-0.635,1.002-2.016c0-0.166,0.004-0.15-0.008-0.293	c0.438,0.477,0.953,1.16,0.953,1.744c0,0.104,0.006,0.248-0.036,0.4c0.689,0,1.214-0.715,1.214-1.191	c0-0.721-1.105-1.615-1.461-2.008c0.059-0.004,0.1-0.008,0.122-0.008c1.21,0,1.454,0.404,1.576,0.711	c0.323-0.266,0.603-0.736,0.603-1.332c0-0.342-0.073-0.727-0.728-0.727c-0.626,0-1.581,0.094-2.239,0.211	c-0.504-0.705-1.501-2.068-1.967-3.125c0.188,0.033,0.456,0.057,0.869,0.057c0.208,0,0.43-0.021,0.56-0.076	c-2.007-1.736-3.679-3.986-3.679-6.531c0-0.409,0.098-0.816,0.234-1.254c0.051-0.012,0.103-0.021,0.153-0.027l5.063,8.106	c1.517,2.395,2.705,2.354,4.496,2.354c-1.475-1.131-2.466-2.594-2.929-3.334l-4.755-7.603c0.257-0.083,0.51-0.175,0.758-0.271	l4.205,6.73c1.518,2.396,2.705,2.354,4.497,2.354c-1.492-1.145-2.46-2.58-2.932-3.332l-4.085-6.533	c0.231-0.128,0.458-0.266,0.678-0.401l3.348,5.354c1.519,2.398,2.704,2.355,4.495,2.355c-1.49-1.145-2.458-2.584-2.932-3.334	l-3.432-5.495c0.202-0.18,0.396-0.37,0.574-0.563l2.434,3.895c1.518,2.397,2.704,2.354,4.498,2.354	c-1.491-1.145-2.462-2.587-2.935-3.337l-2.824-4.521c0.152-0.281,0.281-0.568,0.388-0.864L30.104,11.776z M7.427,6.571	c0-1.688,1.228-3.024,1.659-3.401c0.104,0.025,0.208,0.05,0.313,0.072c-0.459,0.561-1.271,1.5-1.271,2.746	c0,2.471,2.642,4.616,5.63,4.616c-0.02,0.212-0.029,0.435-0.029,0.663c0,0.362,0.021,0.703,0.058,1.023	C10.403,12.269,7.427,9.527,7.427,6.571z M12.008,26.829l-0.02,0.057h0.06c0.949,0,1.411-0.064,1.718-0.109	c0.161-0.021,0.275-0.039,0.399-0.039c0.245,0,0.435,0.021,0.435,0.324c0,0.201-0.238,0.523-0.469,0.711	c-0.35-0.328-0.834-0.396-1.545-0.396c-0.333,0-0.769,0.063-1.001,0.094l-0.038,0.004l-0.041,0.008l0.015,0.109	c0.026,0.197,0.063,0.441,0.063,0.771l-0.004,0.299l-0.004,0.373c0,0.805,0.11,1.266,0.394,1.611	c-0.073,0.027-0.191,0.051-0.269,0.051c-0.5,0-0.646-0.219-0.646-1.662c0-0.289-0.016-0.563-0.026-0.742l-0.014-0.268l-0.063,0.049	c-0.744,0.564-1.511,1.58-1.557,2.338c-0.226-0.145-0.466-0.469-0.466-0.717c0-0.414,0.62-1.035,1.341-1.754l0.414-0.414	l0.053-0.057L10.6,27.439c-0.155-0.041-0.441-0.113-0.688-0.113c-0.809,0-1.313,0.152-1.625,0.492	c-0.11-0.162-0.206-0.539-0.206-0.764c0-0.143,0.028-0.242,0.086-0.301c0.07-0.066,0.181-0.066,0.275-0.066h0.021	c0.89,0,1.953,0.158,2.368,0.227l0.024,0.006l0.017-0.02c0.071-0.1,1.769-2.355,2.208-3.557c0.102-0.037,0.188-0.063,0.366-0.063	c0.334,0,0.426,0.225,0.522,0.566C12.909,25.138,12.249,26.142,12.008,26.829z M21.156,23.282c0.177,0,0.264,0.027,0.365,0.063	c0.439,1.199,2.137,3.457,2.208,3.557l0.017,0.021l0.024-0.006c0.415-0.064,1.479-0.227,2.368-0.227h0.02	c0.097,0,0.207,0,0.275,0.064c0.058,0.061,0.086,0.16,0.086,0.305c0,0.223-0.095,0.6-0.206,0.762	c-0.313-0.342-0.815-0.492-1.625-0.492c-0.244,0-0.53,0.072-0.687,0.113l-0.063,0.014l-0.072,0.021l0.467,0.467	c0.721,0.719,1.342,1.34,1.342,1.754c0,0.25-0.241,0.572-0.466,0.719c-0.048-0.758-0.813-1.771-1.559-2.338l-0.063-0.049	l-0.012,0.266c-0.012,0.184-0.027,0.453-0.027,0.742c0,1.443-0.146,1.662-0.646,1.662c-0.076,0-0.193-0.023-0.267-0.049	c0.28-0.352,0.393-0.811,0.393-1.613l-0.004-0.373l-0.004-0.301c0-0.33,0.035-0.574,0.062-0.771l0.016-0.109l-0.079-0.012	c-0.232-0.031-0.668-0.092-1-0.092c-0.712,0-1.194,0.064-1.545,0.396c-0.229-0.189-0.469-0.51-0.469-0.713	c0-0.303,0.188-0.324,0.434-0.324c0.125,0,0.24,0.018,0.4,0.037c0.307,0.045,0.769,0.111,1.718,0.111h0.06l-0.02-0.059	c-0.241-0.688-0.901-1.689-1.96-2.979C20.728,23.507,20.821,23.282,21.156,23.282z M17.228,3.575	c-0.105-0.439-0.331-0.89-0.617-1.229c-0.26-0.307-0.69-0.672-1.271-0.672c-0.265,0-0.71,0.124-0.991,0.244	c-0.105-0.19-0.313-0.656-0.313-0.866c0-0.214,0.363-0.432,1.06-0.432c1.528,0,2.441,0.69,2.441,1.85	C17.537,2.876,17.375,3.247,17.228,3.575z M17.916,2.069c-0.056-0.327-0.18-0.624-0.369-0.878c0.011-0.303,0.133-0.586,0.614-0.354	c-0.261,0.27-0.06,0.739-0.06,0.739s0.533-0.247,0.423-0.6C19.315,1.17,18.747,2.232,17.916,2.069z M20.89,12.291	c0.041-0.331,0.063-0.674,0.063-1.024c0-0.189,0.001-0.411-0.021-0.663c2.951-0.042,5.542-2.168,5.542-4.615	c0-1.245-0.813-2.187-1.271-2.745c0.104-0.021,0.208-0.046,0.313-0.072c0.432,0.376,1.659,1.712,1.659,3.401	C27.177,9.506,24.242,12.229,20.89,12.291z"></path> </svg>