<svg version="1.1" xmlns="http://www.w3.org/2000/svg" xmlns:xlink="http://www.w3.org/1999/xlink" x="0px" y="0px" width="121.106px" height="30.619px" viewBox="-411.854 471.176 121.106 30.619" enable-background="new -411.854 471.176 121.106 30.619" xml:space="preserve" preserveAspectRatio="xMinYMin meet">
								<path d="M-404.554,474.739c0,0.423-0.052,0.793-0.159,1.111c-0.104,0.314-0.25,0.59-0.431,0.816	c-0.183,0.229-0.394,0.415-0.636,0.559c-0.24,0.141-0.49,0.247-0.75,0.313v0.037c0.318,0.061,0.615,0.17,0.892,0.335	c0.277,0.165,0.519,0.37,0.724,0.617s0.371,0.538,0.494,0.872c0.122,0.336,0.184,0.703,0.184,1.104c0,0.481-0.081,0.924-0.246,1.321	c-0.165,0.4-0.42,0.747-0.768,1.041c-0.347,0.294-0.783,0.523-1.313,0.688c-0.529,0.164-1.157,0.246-1.887,0.246h-2.485v-12.166	h2.346c0.717,0,1.332,0.071,1.842,0.22c0.512,0.146,0.932,0.354,1.26,0.627c0.33,0.27,0.568,0.596,0.715,0.979	C-404.627,473.842-404.554,474.269-404.554,474.739z M-406.105,474.791c0-0.563-0.2-1.025-0.6-1.393	c-0.399-0.364-1.028-0.547-1.887-0.547h-0.811v4.196h0.793c0.824,0,1.445-0.199,1.869-0.602	C-406.317,476.049-406.105,475.496-406.105,474.791z M-405.877,480.398c0-0.658-0.215-1.179-0.644-1.563	c-0.429-0.383-1.043-0.571-1.843-0.571h-1.041v4.267h0.953c0.906,0,1.562-0.18,1.967-0.538	C-406.078,481.635-405.877,481.104-405.877,480.398z M-396.427,483.801h-1.305v-0.951h-0.035c-0.036,0.068-0.112,0.174-0.229,0.308	c-0.117,0.136-0.268,0.266-0.449,0.39c-0.182,0.123-0.402,0.23-0.661,0.325c-0.259,0.096-0.546,0.144-0.864,0.144	c-0.376,0-0.714-0.059-1.014-0.167c-0.301-0.111-0.557-0.291-0.768-0.537c-0.211-0.248-0.373-0.567-0.483-0.962	c-0.112-0.396-0.169-0.879-0.169-1.454v-5.557h1.429v5.447c0,0.705,0.115,1.208,0.344,1.508s0.585,0.449,1.067,0.449	c0.41,0,0.758-0.103,1.04-0.309c0.282-0.205,0.504-0.408,0.67-0.608v-6.487h1.428L-396.427,483.801L-396.427,483.801z M-389.621,483.801v-5.447c0-0.717-0.121-1.231-0.36-1.542c-0.242-0.313-0.609-0.468-1.103-0.468c-0.424,0-0.775,0.104-1.058,0.316	c-0.283,0.211-0.506,0.417-0.67,0.617v6.522h-1.429v-8.463h1.305v0.952h0.036c0.036-0.069,0.11-0.174,0.229-0.309	c0.117-0.136,0.271-0.265,0.459-0.389c0.187-0.122,0.41-0.231,0.67-0.325c0.258-0.095,0.551-0.144,0.881-0.144	c0.375,0,0.717,0.06,1.022,0.168c0.306,0.111,0.563,0.291,0.774,0.538c0.213,0.247,0.377,0.567,0.494,0.96	c0.119,0.396,0.177,0.88,0.177,1.456v5.556H-389.621L-389.621,483.801z M-386.447,479.693c0-0.857,0.111-1.576,0.334-2.151	c0.225-0.574,0.513-1.04,0.865-1.393c0.353-0.354,0.752-0.604,1.198-0.75c0.447-0.146,0.894-0.222,1.341-0.222	c0.27,0,0.504,0.021,0.705,0.063c0.2,0.042,0.363,0.091,0.493,0.15v-4.056l1.429-0.158V483.8h-1.306v-0.898h-0.035	c-0.036,0.071-0.1,0.167-0.194,0.291c-0.094,0.124-0.224,0.247-0.389,0.37c-0.164,0.123-0.369,0.229-0.617,0.315	c-0.246,0.089-0.533,0.133-0.863,0.133c-0.399,0-0.778-0.078-1.137-0.237s-0.674-0.411-0.943-0.758	c-0.269-0.348-0.485-0.793-0.645-1.34C-386.367,481.13-386.447,480.469-386.447,479.693z M-383.098,482.743	c0.225,0,0.423-0.029,0.6-0.088c0.176-0.059,0.33-0.133,0.459-0.221s0.238-0.181,0.326-0.273s0.155-0.176,0.202-0.247v-5.219	c-0.129-0.082-0.278-0.152-0.45-0.211c-0.17-0.06-0.385-0.088-0.643-0.088c-0.329,0-0.639,0.055-0.926,0.168	c-0.288,0.11-0.538,0.297-0.75,0.554c-0.211,0.259-0.379,0.596-0.502,1.005c-0.123,0.412-0.187,0.917-0.187,1.52	c0,0.588,0.05,1.078,0.15,1.472c0.1,0.396,0.239,0.711,0.415,0.952c0.177,0.242,0.376,0.415,0.6,0.52	C-383.58,482.692-383.344,482.743-383.098,482.743z M-372.466,478.195c0,0.365-0.012,0.679-0.036,0.943	c-0.021,0.264-0.046,0.495-0.068,0.693h-4.321c0.049,0.999,0.266,1.734,0.646,2.204c0.383,0.472,0.932,0.705,1.646,0.705	c0.248,0,0.471-0.029,0.668-0.088c0.201-0.059,0.375-0.13,0.521-0.212s0.271-0.165,0.371-0.247c0.102-0.082,0.172-0.146,0.219-0.194	l0.529,1.006c-0.059,0.062-0.146,0.146-0.266,0.258c-0.115,0.108-0.275,0.223-0.476,0.335c-0.2,0.108-0.446,0.208-0.739,0.291	c-0.295,0.083-0.642,0.122-1.041,0.122c-0.529,0-1.011-0.088-1.438-0.266c-0.432-0.176-0.793-0.449-1.094-0.818	c-0.301-0.369-0.531-0.841-0.695-1.41c-0.164-0.57-0.248-1.254-0.248-2.056c0-0.753,0.086-1.4,0.258-1.946	c0.17-0.548,0.402-0.996,0.695-1.352c0.293-0.353,0.635-0.612,1.021-0.784c0.389-0.171,0.807-0.257,1.25-0.257	c0.813,0,1.448,0.257,1.903,0.77C-372.695,476.405-372.466,477.172-372.466,478.195z M-375.146,476.29	c-0.504,0-0.91,0.212-1.216,0.637c-0.307,0.424-0.481,1.032-0.53,1.833h3.088c0.012-0.06,0.021-0.146,0.024-0.257	c0.007-0.109,0.011-0.23,0.011-0.359c0-0.589-0.117-1.044-0.354-1.367C-374.358,476.451-374.699,476.29-375.146,476.29z M-366.912,477.049c-0.095-0.105-0.265-0.25-0.513-0.434c-0.245-0.182-0.567-0.272-0.969-0.272c-0.375,0-0.664,0.089-0.865,0.266	c-0.198,0.176-0.299,0.388-0.299,0.634c0,0.317,0.092,0.579,0.271,0.785c0.184,0.206,0.463,0.426,0.84,0.661l0.529,0.315	c0.574,0.343,1.025,0.708,1.355,1.104c0.328,0.395,0.493,0.901,0.493,1.523c0,0.671-0.231,1.233-0.696,1.692	c-0.463,0.459-1.131,0.688-2,0.688c-0.342,0-0.642-0.035-0.898-0.105c-0.26-0.069-0.484-0.152-0.68-0.247	c-0.193-0.094-0.355-0.196-0.484-0.308c-0.129-0.112-0.234-0.215-0.316-0.312l0.688-1.129c0.069,0.071,0.155,0.152,0.258,0.247	c0.101,0.096,0.22,0.188,0.359,0.273c0.139,0.085,0.299,0.162,0.477,0.221c0.177,0.059,0.382,0.088,0.617,0.088	c0.422,0,0.746-0.094,0.97-0.281c0.223-0.188,0.336-0.418,0.336-0.688c0-0.2-0.027-0.373-0.078-0.521	c-0.056-0.146-0.135-0.277-0.24-0.396c-0.104-0.117-0.232-0.229-0.387-0.334c-0.152-0.106-0.33-0.226-0.527-0.354l-0.531-0.335	c-0.527-0.341-0.941-0.697-1.242-1.075c-0.299-0.376-0.449-0.856-0.449-1.444c0-0.317,0.063-0.609,0.187-0.873	c0.123-0.265,0.297-0.493,0.521-0.688c0.224-0.192,0.484-0.348,0.783-0.458c0.301-0.109,0.619-0.169,0.963-0.169	c0.326,0,0.609,0.033,0.846,0.1c0.235,0.063,0.438,0.146,0.607,0.248c0.17,0.1,0.313,0.198,0.424,0.299	c0.109,0.1,0.201,0.186,0.273,0.255L-366.912,477.049z M-359.947,483.801v-5.447c0-0.693-0.103-1.192-0.301-1.498	c-0.199-0.307-0.521-0.458-0.97-0.458c-0.233,0-0.442,0.028-0.625,0.088c-0.182,0.06-0.344,0.132-0.485,0.22	c-0.141,0.089-0.265,0.188-0.369,0.291c-0.106,0.106-0.194,0.2-0.266,0.283v6.522h-1.429v-8.464h1.306v0.953h0.036	c0.058-0.095,0.146-0.209,0.265-0.345c0.117-0.136,0.265-0.265,0.438-0.389c0.177-0.123,0.381-0.229,0.617-0.311	c0.234-0.083,0.5-0.124,0.793-0.124c0.963,0,1.646,0.377,2.045,1.13c0.082-0.117,0.193-0.243,0.334-0.38	c0.144-0.135,0.308-0.258,0.494-0.369c0.188-0.109,0.398-0.2,0.635-0.271c0.234-0.071,0.494-0.105,0.776-0.105	c1.716,0,2.573,1,2.573,2.997v5.679h-1.43v-5.448c0-0.693-0.121-1.192-0.369-1.498c-0.246-0.307-0.611-0.458-1.094-0.458	c-0.398,0-0.73,0.097-0.996,0.291c-0.264,0.193-0.473,0.379-0.625,0.556c0.022,0.13,0.039,0.271,0.053,0.415	c0.013,0.147,0.02,0.303,0.02,0.467v5.68h-1.428L-359.947,483.801L-359.947,483.801z M-350.515,483.801h-1.43v-8.463h1.43V483.801z M-351.222,473.293c-0.293,0-0.526-0.095-0.705-0.281c-0.178-0.188-0.264-0.437-0.264-0.739c0-0.294,0.086-0.535,0.264-0.724	c0.179-0.188,0.412-0.281,0.705-0.281c0.283,0,0.515,0.094,0.688,0.281c0.177,0.188,0.265,0.429,0.265,0.724	c0,0.306-0.088,0.553-0.265,0.739C-350.707,473.198-350.937,473.293-351.222,473.293z M-343.709,483.801v-5.447	c0-0.717-0.121-1.231-0.361-1.542c-0.241-0.313-0.608-0.468-1.103-0.468c-0.424,0-0.776,0.104-1.059,0.316	c-0.283,0.211-0.506,0.417-0.67,0.617v6.522h-1.43v-8.463h1.305v0.952h0.035c0.037-0.069,0.113-0.174,0.229-0.309	c0.117-0.136,0.271-0.265,0.459-0.389c0.188-0.122,0.412-0.231,0.67-0.325c0.26-0.095,0.553-0.144,0.883-0.144	c0.375,0,0.717,0.06,1.021,0.168c0.305,0.111,0.563,0.291,0.774,0.538c0.213,0.247,0.377,0.567,0.494,0.96	c0.116,0.396,0.176,0.88,0.176,1.456v5.556H-343.709L-343.709,483.801z M-338.72,483.801h-1.43v-8.463h1.43V483.801z M-339.427,473.293c-0.293,0-0.526-0.095-0.705-0.281c-0.176-0.188-0.264-0.437-0.264-0.739c0-0.294,0.088-0.535,0.264-0.724	c0.179-0.188,0.412-0.281,0.705-0.281c0.281,0,0.513,0.094,0.688,0.281c0.178,0.188,0.266,0.429,0.266,0.724	c0,0.306-0.088,0.553-0.266,0.739C-338.914,473.198-339.144,473.293-339.427,473.293z M-332.886,477.049	c-0.094-0.105-0.262-0.25-0.512-0.434c-0.246-0.182-0.57-0.272-0.969-0.272c-0.377,0-0.664,0.089-0.863,0.266	c-0.201,0.176-0.303,0.388-0.303,0.634c0,0.317,0.092,0.579,0.273,0.785c0.183,0.206,0.463,0.426,0.838,0.661l0.529,0.315	c0.576,0.343,1.026,0.708,1.356,1.104c0.328,0.395,0.492,0.901,0.492,1.523c0,0.671-0.229,1.233-0.695,1.692	c-0.463,0.459-1.131,0.688-2,0.688c-0.342,0-0.641-0.035-0.899-0.105c-0.258-0.069-0.484-0.152-0.68-0.247	c-0.193-0.094-0.354-0.196-0.484-0.308c-0.129-0.112-0.232-0.215-0.314-0.312l0.688-1.129c0.07,0.071,0.156,0.152,0.259,0.247	c0.098,0.096,0.219,0.188,0.36,0.273c0.14,0.088,0.299,0.162,0.476,0.221c0.176,0.059,0.381,0.088,0.616,0.088	c0.423,0,0.746-0.094,0.97-0.281c0.226-0.188,0.336-0.418,0.336-0.688c0-0.2-0.024-0.373-0.08-0.521	c-0.053-0.146-0.131-0.277-0.237-0.396c-0.104-0.117-0.232-0.229-0.39-0.334c-0.149-0.106-0.328-0.226-0.526-0.354l-0.529-0.335	c-0.527-0.341-0.941-0.697-1.242-1.075c-0.301-0.376-0.449-0.856-0.449-1.444c0-0.317,0.063-0.609,0.186-0.873	c0.125-0.265,0.297-0.493,0.521-0.688c0.223-0.192,0.484-0.348,0.783-0.458c0.301-0.109,0.621-0.169,0.961-0.169	c0.33,0,0.611,0.033,0.848,0.1c0.236,0.063,0.438,0.146,0.609,0.248c0.168,0.1,0.313,0.198,0.422,0.299	c0.111,0.1,0.203,0.186,0.273,0.255L-332.886,477.049z M-326.748,476.501h-1.853v4.689c0,0.601,0.076,1.008,0.229,1.227	c0.15,0.218,0.412,0.325,0.775,0.325c0.211,0,0.395-0.029,0.547-0.088c0.152-0.059,0.266-0.111,0.334-0.158l0.193,1.146	c-0.06,0.047-0.199,0.12-0.423,0.22c-0.223,0.101-0.522,0.15-0.899,0.15c-0.729,0-1.273-0.202-1.639-0.607	c-0.365-0.405-0.548-1.079-0.548-2.021V476.5h-1.021v-0.952l1.021-0.212l0.158-2.36h1.271v2.36h2.026L-326.748,476.501z M-319.818,478.195c0,0.365-0.014,0.679-0.036,0.943c-0.023,0.264-0.047,0.495-0.07,0.693h-4.318	c0.047,0.999,0.264,1.734,0.645,2.204c0.381,0.472,0.933,0.705,1.646,0.705c0.248,0,0.471-0.029,0.67-0.088	c0.201-0.059,0.373-0.13,0.521-0.212c0.146-0.082,0.271-0.165,0.369-0.247c0.1-0.082,0.174-0.146,0.221-0.194l0.529,1.006	c-0.061,0.062-0.147,0.146-0.266,0.258c-0.115,0.108-0.275,0.223-0.477,0.335c-0.199,0.108-0.447,0.208-0.74,0.291	s-0.643,0.122-1.041,0.122c-0.527,0-1.008-0.088-1.438-0.266c-0.431-0.176-0.793-0.449-1.093-0.818	c-0.301-0.369-0.532-0.841-0.696-1.41c-0.164-0.57-0.246-1.254-0.246-2.056c0-0.753,0.084-1.4,0.256-1.946	c0.17-0.548,0.402-0.996,0.697-1.352c0.293-0.353,0.633-0.612,1.021-0.784c0.388-0.172,0.808-0.257,1.254-0.257	c0.81,0,1.442,0.257,1.901,0.77C-320.05,476.403-319.818,477.172-319.818,478.195z M-322.498,476.29	c-0.506,0-0.912,0.212-1.218,0.637c-0.307,0.424-0.481,1.032-0.528,1.833h3.086c0.013-0.06,0.021-0.146,0.024-0.257	c0.007-0.109,0.011-0.23,0.011-0.359c0-0.589-0.117-1.044-0.354-1.367C-321.711,476.451-322.054,476.29-322.498,476.29z M-314.195,476.589c-0.034-0.021-0.11-0.054-0.229-0.089c-0.117-0.033-0.275-0.053-0.475-0.053c-0.447,0-0.798,0.121-1.05,0.362	c-0.254,0.24-0.435,0.502-0.539,0.783v6.206h-1.428v-8.462h1.306v1.146h0.034c0.06-0.165,0.136-0.326,0.229-0.485	c0.094-0.157,0.213-0.3,0.354-0.423c0.143-0.124,0.311-0.221,0.502-0.291c0.195-0.07,0.428-0.104,0.697-0.104	c0.199,0,0.361,0.018,0.484,0.053s0.219,0.063,0.289,0.088L-314.195,476.589z M-311.354,483.801h-1.431v-8.463h1.431V483.801z M-312.06,473.293c-0.295,0-0.529-0.095-0.707-0.281c-0.176-0.188-0.265-0.437-0.265-0.739c0-0.294,0.089-0.535,0.265-0.724	c0.178-0.188,0.412-0.281,0.707-0.281c0.278,0,0.51,0.094,0.688,0.281c0.178,0.187,0.266,0.429,0.266,0.724	c0,0.306-0.088,0.553-0.266,0.739C-311.552,473.198-311.781,473.293-312.06,473.293z M-303.246,483.801h-1.304v-0.951h-0.036	c-0.035,0.068-0.111,0.174-0.229,0.308c-0.117,0.136-0.269,0.266-0.449,0.39c-0.185,0.123-0.402,0.23-0.662,0.325	c-0.26,0.096-0.547,0.144-0.863,0.144c-0.375,0-0.713-0.059-1.016-0.167c-0.299-0.111-0.556-0.291-0.767-0.537	c-0.211-0.248-0.373-0.567-0.485-0.962c-0.109-0.396-0.166-0.879-0.166-1.454v-5.557h1.428v5.447c0,0.705,0.115,1.208,0.346,1.508	c0.229,0.301,0.584,0.449,1.064,0.449c0.414,0,0.76-0.103,1.041-0.309c0.283-0.205,0.507-0.408,0.67-0.608v-6.487h1.43	L-303.246,483.801L-303.246,483.801z M-296.617,483.801v-5.447c0-0.693-0.101-1.192-0.299-1.498	c-0.199-0.307-0.522-0.458-0.97-0.458c-0.235,0-0.444,0.028-0.627,0.088c-0.184,0.06-0.342,0.132-0.483,0.22	c-0.141,0.089-0.267,0.188-0.371,0.291c-0.104,0.106-0.192,0.2-0.265,0.283v6.522h-1.428v-8.464h1.306v0.953h0.034	c0.06-0.095,0.146-0.209,0.265-0.345s0.265-0.265,0.44-0.389c0.177-0.123,0.381-0.229,0.615-0.311	c0.236-0.083,0.502-0.124,0.795-0.124c0.963,0,1.646,0.377,2.045,1.13c0.082-0.117,0.193-0.243,0.336-0.38	c0.142-0.135,0.306-0.258,0.492-0.369c0.189-0.109,0.398-0.2,0.637-0.271c0.233-0.071,0.492-0.105,0.774-0.105	c1.718,0,2.573,1,2.573,2.997v5.679h-1.43v-5.448c0-0.693-0.121-1.192-0.369-1.498c-0.246-0.307-0.611-0.458-1.094-0.458	c-0.398,0-0.73,0.097-0.996,0.291c-0.264,0.193-0.473,0.379-0.627,0.556c0.024,0.13,0.043,0.271,0.055,0.415	c0.013,0.147,0.02,0.303,0.02,0.467v5.68h-1.43L-296.617,483.801L-296.617,483.801z M-407.675,494.281h-1.728v7.3h-1.428v-7.3	h-1.023v-0.952l1.023-0.192v-1.691c0-0.458,0.063-0.854,0.193-1.182c0.129-0.328,0.301-0.602,0.512-0.813	c0.211-0.212,0.457-0.364,0.74-0.458c0.282-0.094,0.582-0.141,0.899-0.141c0.306,0,0.563,0.041,0.776,0.124	c0.211,0.082,0.353,0.146,0.422,0.192l-0.299,1.183c-0.072-0.048-0.172-0.101-0.301-0.15s-0.288-0.079-0.477-0.079	c-0.34,0-0.6,0.105-0.776,0.316c-0.176,0.212-0.265,0.6-0.265,1.164v1.517h1.906L-407.675,494.281z M-400.341,501.58h-1.304v-0.952	h-0.036c-0.036,0.07-0.111,0.174-0.229,0.311c-0.117,0.135-0.268,0.265-0.449,0.389c-0.184,0.123-0.403,0.231-0.661,0.326	c-0.259,0.095-0.547,0.142-0.864,0.142c-0.376,0-0.714-0.057-1.014-0.167c-0.301-0.109-0.555-0.291-0.768-0.538	c-0.211-0.247-0.373-0.565-0.484-0.962c-0.111-0.395-0.167-0.878-0.167-1.453v-5.556h1.428v5.448c0,0.704,0.114,1.207,0.345,1.507	c0.229,0.3,0.584,0.45,1.065,0.45c0.412,0,0.758-0.104,1.041-0.311c0.282-0.205,0.506-0.406,0.669-0.607v-6.487h1.428V501.58	L-400.341,501.58z M-403.849,490.685c0,0.27-0.083,0.486-0.248,0.65c-0.165,0.165-0.364,0.246-0.599,0.246	c-0.235,0-0.436-0.083-0.6-0.246c-0.164-0.165-0.248-0.384-0.248-0.65c0-0.271,0.084-0.488,0.248-0.652	c0.164-0.166,0.363-0.247,0.6-0.247c0.234,0,0.434,0.082,0.599,0.247C-403.932,490.197-403.849,490.413-403.849,490.685z M-401.134,490.685c0,0.27-0.083,0.486-0.247,0.65c-0.164,0.165-0.365,0.246-0.6,0.246s-0.436-0.083-0.6-0.246	c-0.164-0.165-0.248-0.384-0.248-0.65c0-0.271,0.084-0.488,0.248-0.652c0.164-0.166,0.363-0.247,0.6-0.247	c0.234,0,0.436,0.082,0.6,0.247C-401.217,490.197-401.134,490.413-401.134,490.685z M-394.433,494.368	c-0.036-0.021-0.111-0.052-0.229-0.088c-0.119-0.035-0.276-0.053-0.478-0.053c-0.446,0-0.796,0.121-1.048,0.36	c-0.252,0.24-0.432,0.503-0.538,0.783v6.206h-1.429v-8.462h1.305v1.146h0.036c0.06-0.165,0.135-0.326,0.229-0.485	c0.094-0.159,0.211-0.3,0.353-0.423c0.141-0.124,0.309-0.222,0.501-0.291c0.195-0.071,0.426-0.106,0.697-0.106	c0.199,0,0.361,0.021,0.484,0.057c0.124,0.033,0.221,0.063,0.291,0.088L-394.433,494.368z M-381.916,500.77	c-0.082,0.068-0.205,0.161-0.369,0.271c-0.166,0.111-0.379,0.226-0.645,0.335c-0.264,0.11-0.579,0.207-0.943,0.29	c-0.363,0.083-0.781,0.123-1.252,0.123c-0.692,0-1.336-0.105-1.931-0.325c-0.593-0.218-1.104-0.57-1.532-1.064	c-0.431-0.493-0.765-1.148-1.006-1.966c-0.24-0.816-0.361-1.825-0.361-3.023c0-1.14,0.149-2.104,0.451-2.892	c0.299-0.787,0.692-1.43,1.18-1.921c0.488-0.494,1.041-0.853,1.658-1.067c0.616-0.217,1.248-0.326,1.896-0.326	c0.459,0,0.851,0.041,1.173,0.124c0.323,0.082,0.6,0.184,0.828,0.3c0.229,0.117,0.414,0.234,0.557,0.354	c0.141,0.118,0.258,0.217,0.352,0.3l-0.723,1.076c-0.059-0.061-0.147-0.139-0.265-0.238c-0.118-0.099-0.269-0.196-0.451-0.291	c-0.182-0.094-0.399-0.176-0.651-0.248c-0.254-0.068-0.549-0.104-0.892-0.104c-0.458,0-0.896,0.083-1.313,0.247	c-0.416,0.164-0.783,0.438-1.102,0.828c-0.318,0.389-0.574,0.896-0.767,1.523s-0.291,1.408-0.291,2.336	c0,0.917,0.069,1.696,0.211,2.336c0.142,0.644,0.353,1.164,0.635,1.569c0.282,0.405,0.629,0.699,1.04,0.882	c0.412,0.185,0.895,0.273,1.446,0.273c0.306,0,0.593-0.029,0.864-0.089c0.271-0.062,0.512-0.13,0.723-0.213v-3.543h-1.939v-1.22	h3.42L-381.916,500.77L-381.916,500.77z M-374.39,495.974c0,0.363-0.01,0.679-0.033,0.94c-0.022,0.267-0.047,0.497-0.071,0.696	h-4.317c0.047,1,0.262,1.734,0.645,2.205c0.383,0.47,0.932,0.705,1.646,0.705c0.248,0,0.471-0.029,0.67-0.088	c0.199-0.062,0.373-0.129,0.521-0.212c0.146-0.082,0.27-0.164,0.369-0.247c0.1-0.082,0.174-0.146,0.221-0.193l0.529,1.005	c-0.061,0.063-0.146,0.146-0.266,0.256c-0.117,0.111-0.273,0.226-0.478,0.335c-0.199,0.11-0.444,0.208-0.737,0.29	c-0.295,0.084-0.644,0.123-1.041,0.123c-0.531,0-1.011-0.088-1.438-0.264c-0.431-0.176-0.796-0.45-1.095-0.819	c-0.299-0.369-0.53-0.84-0.694-1.41c-0.164-0.568-0.248-1.255-0.248-2.055c0-0.752,0.086-1.4,0.256-1.947	c0.17-0.547,0.401-0.995,0.695-1.35c0.293-0.354,0.635-0.614,1.022-0.785c0.389-0.17,0.805-0.256,1.252-0.256	c0.812,0,1.443,0.256,1.902,0.768C-374.617,494.184-374.39,494.95-374.39,495.974z M-377.067,494.07	c-0.505,0-0.91,0.211-1.218,0.634c-0.306,0.424-0.479,1.035-0.526,1.834h3.086c0.012-0.059,0.021-0.144,0.024-0.256	c0.006-0.11,0.011-0.229,0.011-0.36c0-0.589-0.119-1.043-0.353-1.366C-376.279,494.23-376.619,494.07-377.067,494.07z M-368.834,494.827c-0.095-0.104-0.265-0.25-0.513-0.432c-0.246-0.185-0.569-0.273-0.971-0.273c-0.375,0-0.662,0.089-0.863,0.268	c-0.198,0.176-0.299,0.388-0.299,0.634c0,0.315,0.092,0.579,0.273,0.784s0.461,0.426,0.836,0.661l0.527,0.315	c0.576,0.341,1.029,0.708,1.359,1.104c0.327,0.394,0.491,0.9,0.491,1.523c0,0.67-0.231,1.234-0.694,1.693	c-0.463,0.458-1.132,0.688-2.002,0.688c-0.34,0-0.64-0.034-0.898-0.104c-0.26-0.07-0.484-0.153-0.678-0.247	s-0.355-0.197-0.484-0.309c-0.131-0.111-0.235-0.217-0.318-0.311l0.689-1.128c0.068,0.071,0.154,0.152,0.254,0.247	c0.102,0.094,0.222,0.186,0.361,0.272c0.143,0.087,0.301,0.161,0.477,0.221c0.178,0.059,0.383,0.088,0.617,0.088	c0.424,0,0.746-0.094,0.971-0.282c0.223-0.188,0.334-0.417,0.334-0.688c0-0.2-0.025-0.373-0.078-0.521	c-0.053-0.146-0.133-0.278-0.238-0.396c-0.104-0.118-0.235-0.23-0.389-0.336c-0.152-0.106-0.328-0.226-0.529-0.354l-0.526-0.336	c-0.529-0.34-0.942-0.699-1.242-1.075c-0.301-0.376-0.45-0.855-0.45-1.444c0-0.315,0.063-0.607,0.188-0.871	c0.121-0.267,0.297-0.493,0.52-0.688c0.225-0.193,0.486-0.347,0.785-0.458c0.301-0.11,0.619-0.168,0.961-0.168	c0.328,0,0.611,0.032,0.848,0.098c0.234,0.064,0.438,0.146,0.607,0.247c0.17,0.103,0.311,0.2,0.422,0.301	c0.113,0.101,0.203,0.187,0.273,0.256L-368.834,494.827z M-360.388,501.58h-1.307v-0.952h-0.035	c-0.035,0.07-0.111,0.174-0.229,0.311c-0.119,0.135-0.27,0.265-0.449,0.389c-0.184,0.123-0.402,0.231-0.661,0.326	c-0.259,0.095-0.548,0.142-0.864,0.142c-0.377,0-0.713-0.057-1.016-0.167c-0.299-0.109-0.555-0.291-0.768-0.538	c-0.213-0.247-0.371-0.565-0.482-0.962c-0.111-0.395-0.168-0.878-0.168-1.453v-5.556h1.428v5.448c0,0.704,0.113,1.207,0.346,1.507	c0.229,0.3,0.584,0.45,1.065,0.45c0.411,0,0.759-0.104,1.04-0.311c0.283-0.205,0.506-0.406,0.672-0.607v-6.487h1.428V501.58	L-360.388,501.58z M-353.584,501.58v-5.446c0-0.718-0.119-1.23-0.359-1.542c-0.241-0.313-0.608-0.469-1.104-0.469	c-0.423,0-0.775,0.105-1.058,0.317c-0.283,0.211-0.507,0.417-0.67,0.617v6.521h-1.43v-8.463h1.307v0.953h0.033	c0.035-0.071,0.113-0.174,0.229-0.31c0.119-0.138,0.271-0.266,0.459-0.39c0.188-0.123,0.414-0.229,0.672-0.326	c0.258-0.095,0.553-0.142,0.881-0.142c0.375,0,0.717,0.058,1.021,0.168c0.307,0.111,0.563,0.291,0.774,0.538	c0.213,0.247,0.377,0.567,0.494,0.961c0.116,0.396,0.176,0.879,0.176,1.456v5.553L-353.584,501.58L-353.584,501.58z M-350.408,497.473c0-0.858,0.11-1.576,0.334-2.151c0.224-0.576,0.513-1.041,0.863-1.394c0.354-0.354,0.754-0.604,1.198-0.75	c0.447-0.146,0.894-0.223,1.343-0.223c0.271,0,0.504,0.021,0.704,0.063c0.199,0.042,0.363,0.092,0.494,0.147v-4.055l1.429-0.159	v12.624h-1.306v-0.896h-0.035c-0.036,0.068-0.101,0.167-0.194,0.291c-0.093,0.124-0.224,0.246-0.388,0.369	c-0.166,0.122-0.37,0.229-0.616,0.315s-0.537,0.132-0.865,0.132c-0.397,0-0.776-0.079-1.137-0.237	c-0.359-0.157-0.675-0.409-0.942-0.76c-0.271-0.346-0.484-0.793-0.646-1.339C-350.33,498.909-350.408,498.248-350.408,497.473z M-347.06,500.523c0.225,0,0.426-0.029,0.602-0.088c0.176-0.062,0.33-0.133,0.459-0.222c0.129-0.088,0.236-0.18,0.324-0.271	c0.09-0.094,0.156-0.176,0.203-0.247v-5.219c-0.131-0.082-0.277-0.153-0.449-0.211c-0.17-0.061-0.385-0.089-0.645-0.089	c-0.328,0-0.638,0.057-0.925,0.168c-0.289,0.109-0.539,0.298-0.75,0.556c-0.213,0.259-0.379,0.594-0.502,1.005	c-0.125,0.412-0.188,0.917-0.188,1.518c0,0.589,0.052,1.079,0.15,1.474c0.102,0.396,0.238,0.711,0.414,0.952	c0.178,0.239,0.377,0.413,0.602,0.52C-347.541,500.469-347.308,500.523-347.06,500.523z M-337.238,501.58v-5.446	c0-0.718-0.12-1.23-0.36-1.542c-0.242-0.313-0.607-0.469-1.103-0.469c-0.424,0-0.776,0.105-1.06,0.317	c-0.282,0.211-0.506,0.417-0.67,0.617v6.521h-1.428v-12.464l1.428-0.159v5.025h0.035c0.049-0.07,0.119-0.165,0.221-0.282	c0.101-0.117,0.238-0.233,0.414-0.352c0.179-0.118,0.392-0.224,0.646-0.312c0.252-0.088,0.548-0.132,0.89-0.132	c0.74,0,1.328,0.241,1.766,0.725c0.436,0.481,0.652,1.28,0.652,2.396v5.554h-1.431V501.58z M-328.248,495.974	c0,0.363-0.013,0.679-0.035,0.94c-0.022,0.267-0.047,0.497-0.069,0.696h-4.318c0.047,1,0.262,1.734,0.643,2.205	c0.383,0.47,0.934,0.705,1.65,0.705c0.244,0,0.471-0.029,0.668-0.088c0.199-0.062,0.375-0.129,0.521-0.212	c0.146-0.082,0.271-0.164,0.37-0.247c0.101-0.082,0.173-0.146,0.22-0.193l0.529,1.005c-0.059,0.063-0.148,0.146-0.266,0.256	c-0.115,0.111-0.275,0.226-0.477,0.335c-0.199,0.11-0.447,0.208-0.74,0.29c-0.293,0.083-0.641,0.123-1.041,0.123	c-0.527,0-1.006-0.088-1.438-0.264c-0.428-0.176-0.791-0.45-1.092-0.819c-0.3-0.369-0.533-0.84-0.696-1.41	c-0.162-0.568-0.246-1.255-0.246-2.055c0-0.752,0.086-1.4,0.258-1.947c0.168-0.547,0.399-0.995,0.694-1.35	c0.293-0.354,0.636-0.614,1.021-0.785c0.39-0.17,0.808-0.256,1.252-0.256c0.812,0,1.445,0.256,1.904,0.768	C-328.476,494.184-328.248,494.95-328.248,495.974z M-330.927,494.07c-0.506,0-0.912,0.211-1.217,0.634	c-0.307,0.424-0.481,1.035-0.528,1.834h3.086c0.012-0.059,0.021-0.144,0.024-0.256c0.006-0.11,0.01-0.229,0.01-0.36	c0-0.589-0.118-1.043-0.354-1.366C-330.142,494.23-330.479,494.07-330.927,494.07z M-324.914,501.58h-1.429v-8.463h1.429V501.58z M-325.619,491.073c-0.293,0-0.528-0.094-0.707-0.282c-0.174-0.188-0.265-0.435-0.265-0.739c0-0.293,0.089-0.534,0.265-0.724	c0.179-0.188,0.414-0.282,0.707-0.282c0.283,0,0.511,0.096,0.688,0.282c0.177,0.188,0.265,0.431,0.265,0.724	c0,0.307-0.088,0.554-0.265,0.739C-325.108,490.978-325.338,491.073-325.619,491.073z M-319.115,494.281h-1.851v4.69	c0,0.6,0.076,1.008,0.229,1.226c0.154,0.217,0.412,0.326,0.775,0.326c0.213,0,0.396-0.029,0.547-0.088	c0.152-0.062,0.266-0.112,0.336-0.158l0.193,1.146c-0.061,0.046-0.199,0.118-0.424,0.22c-0.224,0.1-0.521,0.148-0.898,0.148	c-0.729,0-1.275-0.201-1.641-0.605c-0.363-0.406-0.547-1.079-0.547-2.021v-4.884h-1.021v-0.952l1.021-0.211l0.158-2.362h1.27v2.362	h2.027L-319.115,494.281z"></path> </svg>